<svg xmlns="http://www.w3.org/2000/svg" viewBox="0 0 253.42 244.81"><defs><style>.cls-1{fill:#848484;}.cls-1,.cls-2,.cls-4,.cls-5{stroke:#231f20;stroke-miterlimit:10;stroke-width:6px;}.cls-2{fill:#8fc6dd;}.cls-3,.cls-5{fill:#fff;}.cls-4{fill:none;}</style></defs><g id="Robot"><rect class="cls-1" x="214.82" y="190.84" width="35.6" height="19.3" rx="5.64"/><rect class="cls-1" x="3" y="190.84" width="35.6" height="19.3" rx="5.64"/><rect class="cls-1" x="20.8" y="136.11" width="211.9" height="105.7" rx="34.71"/><circle class="cls-2" cx="64.61" cy="200.49" r="27.14"/><ellipse class="cls-3" cx="438.59" cy="600.02" rx="8.58" ry="10.16" transform="translate(-659.49 75.16) rotate(-45)"/><line class="cls-4" x1="113.96" y1="192.95" x2="113.96" y2="208.03"/><line class="cls-4" x1="122.37" y1="192.95" x2="122.37" y2="208.03"/><line class="cls-4" x1="130.77" y1="192.95" x2="130.77" y2="208.03"/><line class="cls-4" x1="139.53" y1="192.95" x2="139.53" y2="208.03"/><circle class="cls-2" cx="190.33" cy="200.49" r="27.14"/><ellipse class="cls-3" cx="564.32" cy="600.02" rx="8.58" ry="10.16" transform="translate(-622.67 164.07) rotate(-45)"/></g><g id="Hat"><rect class="cls-5" x="20.32" y="3" width="212.86" height="157.14" rx="31.46"/><rect class="cls-5" x="20.8" y="125.94" width="211.9" height="34.2"/><line class="cls-4" x1="147.5" y1="78.42" x2="147.5" y2="123.66"/><line class="cls-4" x1="104.46" y1="78.42" x2="104.46" y2="123.17"/><line class="cls-4" x1="61.61" y1="78.42" x2="61.61" y2="123.17"/><line class="cls-4" x1="190.53" y1="78.42" x2="190.53" y2="123.17"/></g></svg>